<?xml version="1.0" encoding="UTF-8"?>
<svg width="1181px" height="400px" viewBox="0 0 1181 400" version="1.1" xmlns="http://www.w3.org/2000/svg" xmlns:xlink="http://www.w3.org/1999/xlink">
    <!-- Generator: Sketch 45.2 (43514) - http://www.bohemiancoding.com/sketch -->
    <title>Artboard 2 Copy 6</title>
    <desc>Created with Sketch.</desc>
    <defs>
        <linearGradient x1="50%" y1="0%" x2="50%" y2="100%" id="linearGradient-1">
            <stop stop-color="#B7E3E4" offset="0%"></stop>
            <stop stop-color="#A6CFE2" offset="100%"></stop>
        </linearGradient>
        <linearGradient x1="50%" y1="0%" x2="50%" y2="100%" id="linearGradient-2">
            <stop stop-color="#E57066" offset="0%"></stop>
            <stop stop-color="#FC3C2D" offset="100%"></stop>
        </linearGradient>
        <rect id="path-3" x="0" y="0" width="79.1996577" height="41.183822"></rect>
    </defs>
    <g id="Page-1" stroke="none" stroke-width="1" fill="none" fill-rule="evenodd">
        <g id="Artboard-2-Copy-6">
            <g id="Group" transform="translate(20.000000, 47.000000)">
                <path d="M214.103037,250.847076 C214.100172,250.646349 214.098734,250.445276 214.098734,250.243867 C214.098734,227.369264 232.642264,208.825735 255.516867,208.825735 C278.391469,208.825735 296.934999,227.369264 296.934999,250.243867 C296.934999,250.445276 296.933561,250.646349 296.930696,250.847076 L214.103037,250.847076 Z" id="Combined-Shape-Copy-3" fill="url(#linearGradient-1)" opacity="0.800000012" transform="translate(255.516867, 229.836405) rotate(-270.000000) translate(-255.516867, -229.836405) "></path>
                <path d="M309.055886,230.439614 L341.59284,230.439614 L341.59284,230.033419 C392.103176,225.980552 434.168111,191.993302 450.035012,145.824305 L450.035012,143.685877 L124.7108,143.685877 C100.74864,143.685877 81.3316286,163.106363 81.3316286,187.062746 C81.3316286,211.024396 100.752954,230.439614 124.710374,230.439614 L267.038847,230.439614 L267.038847,271.250234 C267.239575,271.2531 267.440648,271.254538 267.642057,271.254538 C290.315251,271.254538 308.733305,253.036119 309.055886,230.439614 Z" id="Combined-Shape" fill="url(#linearGradient-1)"></path>
                <path d="M0.00430313598,184.351692 C0.00143761252,184.150964 0,183.949891 0,183.748482 C0,160.87388 18.5435295,142.33035 41.4181323,142.33035 C64.2927351,142.33035 82.8362646,160.87388 82.8362646,183.748482 C82.8362646,183.949891 82.834827,184.150964 82.8319615,184.351692 L0.00430313598,184.351692 Z" id="Combined-Shape" fill="url(#linearGradient-1)"></path>
                <path d="M20.2626559,246.780495 C20.2597904,246.579767 20.2583528,246.378694 20.2583528,246.177285 C20.2583528,223.302683 38.8018822,204.759153 61.6764851,204.759153 C84.5510879,204.759153 103.094617,223.302683 103.094617,246.177285 C103.094617,246.378694 103.09318,246.579767 103.090314,246.780495 L20.2626559,246.780495 Z" id="Combined-Shape-Copy" fill="url(#linearGradient-1)" transform="translate(61.676485, 225.769824) rotate(-90.000000) translate(-61.676485, -225.769824) "></path>
                <circle id="Combined-Shape-Copy-2" fill="#FFFFFF" cx="369.903025" cy="180.129225" r="25.5991304"></circle>
                <circle id="Combined-Shape-Copy-2" fill="#000000" cx="370.28935" cy="180.51555" r="11.0746569"></circle>
                <circle id="Oval-17-Copy-3" fill="#B7E3E4" cx="417.50236" cy="54.2210858" r="21.6884343"></circle>
                <circle id="Oval-17-Copy-4" fill="#B7E3E4" cx="395.813926" cy="108.442172" r="10.8442172"></circle>
                <circle id="Oval-17-Copy-5" fill="#B7E3E4" cx="412.080252" cy="5.42210858" r="5.42210858"></circle>
            </g>
            <g id="Group-2" transform="translate(727.000000, 16.000000)">
                <path d="M163.069203,340.645648 C163.065855,340.411089 163.064175,340.176127 163.064175,339.940772 C163.064175,313.210791 184.733105,291.54186 211.463086,291.54186 C238.193067,291.54186 259.861997,313.210791 259.861997,339.940772 C259.861997,340.176127 259.860317,340.411089 259.856969,340.645648 L163.069203,340.645648 Z" id="Combined-Shape-Copy-3" fill="url(#linearGradient-2)" opacity="0.800000012" transform="translate(211.463086, 316.093754) rotate(-270.000000) translate(-211.463086, -316.093754) "></path>
                <path d="M273.110422,306.652248 C318.356319,287.310889 350.062487,242.39772 350.062487,190.079178 C350.062487,120.093957 293.328256,63.3597262 223.343035,63.3597262 C153.357814,63.3597262 96.6235824,120.093957 96.6235824,190.079178 C96.6235824,260.0644 153.357814,316.798631 223.343035,316.798631 C223.871795,316.798631 224.399799,316.795392 224.927028,316.788934 L224.927028,364.487637 C225.161587,364.490986 225.396549,364.492666 225.631904,364.492666 C252.361885,364.492666 274.030816,342.823735 274.030816,316.093754 C274.030816,312.862871 273.714236,309.705928 273.110405,306.652255 Z" id="Combined-Shape" fill="url(#linearGradient-2)"></path>
                <circle id="Oval-17-Copy-3" fill="#B7E3E4" cx="388.078323" cy="114.047507" r="25.3438905"></circle>
                <circle id="Oval-17-Copy-4" fill="#B7E3E4" cx="362.734432" cy="50.6877809" r="12.6719452"></circle>
                <circle id="Oval-17-Copy-5" fill="#B7E3E4" cx="381.74235" cy="6.33597262" r="6.33597262"></circle>
                <path d="M0.00502840386,190.079178 C0.00167991354,189.84462 0,189.609657 0,189.374302 C0,162.644321 21.6689307,140.975391 48.3989113,140.975391 C75.1288919,140.975391 96.7978226,162.644321 96.7978226,189.374302 C96.7978226,189.609657 96.7961427,189.84462 96.7927942,190.079178 L0.00502840386,190.079178 Z" id="Combined-Shape" fill="url(#linearGradient-2)"></path>
                <path d="M23.6778056,263.029984 C23.6744571,262.795425 23.6727772,262.560462 23.6727772,262.325107 C23.6727772,235.595127 45.3417079,213.926196 72.0716885,213.926196 C98.8016691,213.926196 120.4706,235.595127 120.4706,262.325107 C120.4706,262.560462 120.46892,262.795425 120.465571,263.029984 L23.6778056,263.029984 Z" id="Combined-Shape-Copy" fill="url(#linearGradient-2)" transform="translate(72.071689, 238.478090) rotate(-90.000000) translate(-72.071689, -238.478090) "></path>
                <g id="Group" transform="translate(264.526857, 190.079178)">
                    <mask id="mask-4" fill="white">
                        <use xlink:href="#path-3"></use>
                    </mask>
                    <g id="Mask"></g>
                    <g mask="url(#mask-4)" id="Combined-Shape-Copy-2">
                        <g transform="translate(11.087952, -30.095870)">
                            <circle fill="#FFFFFF" cx="31.4977042" cy="29.9137111" r="29.9137111"></circle>
                            <circle fill="#000000" cx="18.4852002" cy="29.5731523" r="18.4852002"></circle>
                        </g>
                    </g>
                </g>
            </g>
        </g>
    </g>
</svg>