<?xml version="1.0" encoding="UTF-8"?>
<svg width="1181px" height="820px" viewBox="0 0 1181 820" version="1.1" xmlns="http://www.w3.org/2000/svg" xmlns:xlink="http://www.w3.org/1999/xlink">
    <!-- Generator: Sketch 45.2 (43514) - http://www.bohemiancoding.com/sketch -->
    <title>Artboard 2 Copy 13</title>
    <desc>Created with Sketch.</desc>
    <defs>
        <linearGradient x1="50%" y1="0%" x2="50%" y2="100%" id="linearGradient-1">
            <stop stop-color="#B18AE0" offset="0%"></stop>
            <stop stop-color="#9357A9" offset="100%"></stop>
        </linearGradient>
    </defs>
    <g id="Page-1" stroke="none" stroke-width="1" fill="none" fill-rule="evenodd">
        <g id="Artboard-2-Copy-13">
            <g id="koda" transform="translate(530.000000, 560.000000)">
                <path d="M68.0010871,178.887965 C66.6778686,178.969586 65.3437707,179.011 64,179.011 C62.6562293,179.011 61.3221314,178.969586 59.9989129,178.887965 C59.8738734,192.280728 48.9783081,203.099001 35.5559998,203.099001 C35.4371331,203.099001 35.3184646,203.098152 35.2,203.096461 L35.2,172.180335 C33.6834279,171.414832 32.2014669,170.590758 30.7570895,169.711085 C28.5830312,180.984241 18.6638799,189.499001 6.75599976,189.499001 C6.6371331,189.499001 6.5184646,189.498152 6.4,189.496461 L6.4,142.941402 C2.29978812,134.501322 2.84217094e-14,125.024733 2.84217094e-14,115.011 C2.84217094e-14,79.6647761 28.653776,51.0110001 64,51.0110001 C99.346224,51.0110001 128,79.6647761 128,115.011 C128,125.024733 125.700212,134.501322 121.6,142.941402 L121.6,189.496461 C121.481535,189.498152 121.362867,189.499001 121.244,189.499001 C109.33612,189.499001 99.4169688,180.984241 97.2429105,169.711085 L97.2429105,169.711085 C95.7985331,170.590758 94.3165721,171.414832 92.8,172.180335 L92.8,203.096461 C92.6815354,203.098152 92.5628669,203.099001 92.4440002,203.099001 C79.0216919,203.099001 68.1261266,192.280728 68.0010871,178.887965 Z" id="Combined-Shape" fill="url(#linearGradient-1)"></path>
                <circle id="Oval-17-Copy-4" fill="#B7E3E4" cx="128" cy="56" r="8"></circle>
                <circle id="Oval-17-Copy-6" fill="#B7E3E4" cx="120" cy="8" r="8"></circle>
                <circle id="Oval-17-Copy-5" fill="#B7E3E4" cx="140" cy="28" r="4"></circle>
                <circle id="Combined-Shape-Copy-2" fill="#FFFFFF" cx="26.8850002" cy="111.885" r="18.8850002"></circle>
                <circle id="Combined-Shape-Copy-6" fill="#FFFFFF" cx="100.885" cy="111.885" r="18.8850002"></circle>
                <circle id="Combined-Shape-Copy-2" fill="#000000" cx="31.6700001" cy="111.67" r="11.6700001"></circle>
                <circle id="Combined-Shape-Copy-7" fill="#000000" cx="105.67" cy="111.67" r="11.6700001"></circle>
            </g>
            <path d="M534.453166,358.859399 C531.700207,356.106439 530.323747,352.894701 530.323747,349.224088 C530.323747,342.800515 530.553157,337.982908 531.011984,334.771122 C534.22377,315.959231 541.450181,298.982901 552.691433,283.841623 C563.932685,268.700345 579.188441,251.724015 598.459158,232.912124 C612.682783,219.147326 623.465047,207.562128 630.806272,198.156182 C638.147498,188.750237 642.047466,179.459137 642.506292,170.282605 C643.882772,156.976633 639.63869,146.19437 629.773918,137.935491 C619.909146,129.676612 607.635718,125.547234 592.953266,125.547234 C559.000097,125.547234 538.1238,141.835335 530.323747,174.412024 C528.029614,179.917943 525.276696,184.047321 522.06491,186.80028 C518.853123,189.55324 514.264926,190.929699 508.30018,190.929699 L418.829439,190.929699 C414.241173,190.929699 410.45591,189.209125 407.473537,185.767926 C404.491164,182.326726 403,177.853234 403,172.347315 C403.917653,147.570678 411.946998,123.712052 427.088277,100.770721 C442.229555,77.8293909 464.711721,59.1324871 494.535451,44.6794489 C524.35918,30.2264107 559.917709,23 601.212104,23 C643.424152,23 677.720927,29.5381811 704.103457,42.6147395 C730.485987,55.6912978 749.4123,71.6352833 760.882966,90.4471743 C772.353631,109.259065 778.088877,128.300084 778.088877,147.570801 C778.088877,170.970959 772.812451,191.388436 762.259439,208.823848 C751.706427,226.259259 736.565376,245.759097 716.835831,267.323948 C704.447513,281.088746 695.041709,292.100419 688.618136,300.359298 C682.194563,308.618177 676.918137,317.565162 672.788697,327.200521 C670.953391,331.32996 669.347522,337.065207 667.971042,344.406433 C664.300429,351.288832 660.973986,356.106439 657.991613,358.859399 C655.00924,361.612358 650.994567,362.988817 645.947475,362.988817 L544.088477,362.988817 C540.417864,362.988817 537.206126,361.612358 534.453166,358.859399 Z M533.420812,506.83024 C529.979612,503.618454 528.259038,499.489076 528.259038,494.441984 L528.259038,412.541843 C528.259038,407.494751 529.979612,403.250668 533.420812,399.809469 C536.862011,396.368269 541.106094,394.647695 546.153186,394.647695 L638.376874,394.647695 C643.423966,394.647695 647.668049,396.368269 651.109248,399.809469 C654.550448,403.250668 656.271022,407.494751 656.271022,412.541843 L656.271022,494.441984 C656.271022,499.489076 654.550448,503.618454 651.109248,506.83024 C647.668049,510.042026 643.423966,511.647895 638.376874,511.647895 L546.153186,511.647895 C541.106094,511.647895 536.862011,510.042026 533.420812,506.83024 Z" id="?" fill="url(#linearGradient-1)"></path>
        </g>
    </g>
</svg>