<?xml version="1.0" encoding="UTF-8"?>
<svg width="945px" height="551px" viewBox="0 0 945 551" version="1.1" xmlns="http://www.w3.org/2000/svg" xmlns:xlink="http://www.w3.org/1999/xlink">
    <!-- Generator: Sketch 48.2 (47327) - http://www.bohemiancoding.com/sketch -->
    <title>koda-remembering</title>
    <desc>Created with Sketch.</desc>
    <defs>
        <linearGradient x1="50%" y1="0%" x2="50%" y2="100%" id="linearGradient-1">
            <stop stop-color="#FFFFFF" offset="0%"></stop>
            <stop stop-color="#E9E9E9" offset="100%"></stop>
        </linearGradient>
        <linearGradient x1="50%" y1="0%" x2="50%" y2="100%" id="linearGradient-2">
            <stop stop-color="#B7E3E4" offset="0%"></stop>
            <stop stop-color="#A6CFE2" offset="100%"></stop>
        </linearGradient>
        <linearGradient x1="50%" y1="0%" x2="50%" y2="100%" id="linearGradient-3">
            <stop stop-color="#E57066" offset="0%"></stop>
            <stop stop-color="#FC3C2D" offset="100%"></stop>
        </linearGradient>
        <rect id="path-4" x="0" y="0" width="24.1783691" height="12.5727519"></rect>
        <linearGradient x1="50%" y1="0%" x2="50%" y2="100%" id="linearGradient-6">
            <stop stop-color="#B18AE0" offset="0%"></stop>
            <stop stop-color="#9357A9" offset="100%"></stop>
        </linearGradient>
    </defs>
    <g id="Page-1" stroke="none" stroke-width="1" fill="none" fill-rule="evenodd">
        <g id="koda-remembering">
            <g id="Group-2" transform="translate(24.000000, 58.000000)">
                <path d="M51.1484615,152.305556 C50.0894819,151.249995 49.56,150.018526 49.56,148.611111 L49.56,103.644444 L0.635384615,12.8666667 C0.211792754,12.1629594 0,11.3888931 0,10.5444444 C0,9.41851289 0.4588843,8.39815272 1.37666667,7.48333333 C2.29444903,6.56851394 3.31811401,6.11111111 4.44769231,6.11111111 L32.4046154,6.11111111 C34.3813774,6.11111111 36.0051219,6.60369878 37.2758974,7.58888889 C38.546673,8.574079 39.4644416,9.629624 40.0292308,10.7555556 L69.4687179,63.7444444 L98.9082051,10.7555556 C99.4729943,9.629624 100.390763,8.574079 101.661538,7.58888889 C102.932314,6.60369878 104.556058,6.11111111 106.532821,6.11111111 L134.489744,6.11111111 C135.619322,6.11111111 136.642987,6.56851394 137.560769,7.48333333 C138.478552,8.39815272 138.937436,9.41851289 138.937436,10.5444444 C138.937436,11.3888931 138.725643,12.1629594 138.302051,12.8666667 L89.3774359,103.644444 L89.3774359,148.611111 C89.3774359,150.159267 88.847954,151.425921 87.7889744,152.411111 C86.7299947,153.396301 85.4239394,153.888889 83.8707692,153.888889 L54.8548718,153.888889 C53.4428989,153.888889 52.2074412,153.361116 51.1484615,152.305556 Z M157.893077,152.305556 C156.834097,151.249995 156.304615,150.018526 156.304615,148.611111 L156.304615,11.6 C156.304615,10.0518441 156.798798,8.75000528 157.787179,7.69444444 C158.77556,6.63888361 160.046317,6.11111111 161.599487,6.11111111 L261.566667,6.11111111 C263.119837,6.11111111 264.425892,6.63888361 265.484872,7.69444444 C266.543851,8.75000528 267.073333,10.0518441 267.073333,11.6 L267.073333,32.5 C267.073333,34.0481559 266.543851,35.3148099 265.484872,36.3 C264.425892,37.2851901 263.119837,37.7777778 261.566667,37.7777778 L194.639487,37.7777778 L194.639487,64.5888889 L256.907179,64.5888889 C258.46035,64.5888889 259.766405,65.1166614 260.825385,66.1722222 C261.884364,67.2277831 262.413846,68.5296219 262.413846,70.0777778 L262.413846,89.2888889 C262.413846,90.8370448 261.884364,92.1388836 260.825385,93.1944444 C259.766405,94.2500053 258.46035,94.7777778 256.907179,94.7777778 L194.639487,94.7777778 L194.639487,122.222222 L263.261026,122.222222 C264.814196,122.222222 266.120251,122.749995 267.179231,123.805556 C268.23821,124.861116 268.767692,126.162955 268.767692,127.711111 L268.767692,148.611111 C268.767692,150.159267 268.23821,151.425921 267.179231,152.411111 C266.120251,153.396301 264.814196,153.888889 263.261026,153.888889 L161.599487,153.888889 C160.187514,153.888889 158.952057,153.361116 157.893077,152.305556 Z M313.45641,150.088889 C303.854995,146.148128 296.583444,140.940773 291.641538,134.466667 C286.699633,127.99256 284.087523,120.955594 283.805128,113.355556 C283.805128,112.088883 284.264013,111.033338 285.181795,110.188889 C286.099577,109.34444 287.19384,108.922222 288.464615,108.922222 L316.633333,108.922222 C318.327701,108.922222 319.704354,109.203701 320.763333,109.766667 C321.822313,110.329632 322.987173,111.314808 324.257949,112.722222 C326.093513,116.100017 328.952716,118.879619 332.835641,121.061111 C336.718566,123.242603 341.907489,124.333333 348.402564,124.333333 C356.027218,124.333333 361.886817,123.172234 365.981538,120.85 C370.07626,118.527766 372.12359,115.325946 372.12359,111.244444 C372.12359,108.288874 371.064626,105.861121 368.946667,103.961111 C366.828707,102.061102 363.440023,100.37223 358.780513,98.8944444 C354.121002,97.4166593 347.414232,95.7629721 338.66,93.9333333 C321.575128,90.5555387 308.796965,85.418553 300.325128,78.5222222 C291.853291,71.6258914 287.617436,61.7741381 287.617436,48.9666667 C287.617436,40.2406971 290.053053,32.4648489 294.924359,25.6388889 C299.795665,18.8129288 306.714229,13.500019 315.680256,9.7 C324.646284,5.899981 335.059428,4 346.92,4 C359.345361,4 370.111493,6.14627483 379.218718,10.4388889 C388.325943,14.7315029 395.315104,20.0795976 400.18641,26.4833333 C405.057717,32.8870691 407.634529,39.1851542 407.916923,45.3777778 C407.916923,46.6444508 407.493338,47.7351806 406.646154,48.65 C405.79897,49.5648194 404.740006,50.0222222 403.469231,50.0222222 L373.817949,50.0222222 C370.711608,50.0222222 368.311291,48.7555682 366.616923,46.2222222 C365.769739,43.2666519 363.581214,40.7685287 360.051282,38.7277778 C356.52135,36.6870268 352.1443,35.6666667 346.92,35.6666667 C340.989714,35.6666667 336.400871,36.7222117 333.153333,38.8333333 C329.905796,40.944455 328.282051,44.0407203 328.282051,48.1222222 C328.282051,52.2037241 330.399979,55.4055439 334.635897,57.7277778 C338.871816,60.0500116 346.778746,62.4073954 358.356923,64.8 C371.629468,67.1926046 382.183807,70.1833154 390.020256,73.7722222 C397.856706,77.3611291 403.645708,82.0055271 407.387436,87.7055556 C411.129164,93.4055841 413,100.618475 413,109.344444 C413,118.914863 410.246694,127.218483 404.74,134.255556 C399.233306,141.292628 391.608767,146.675907 381.866154,150.405556 C372.123541,154.135204 360.969123,156 348.402564,156 C334.706427,156 323.057826,154.029649 313.45641,150.088889 Z" id="YES" fill="url(#linearGradient-1)"></path>
                <g id="Group" transform="translate(108.000000, 0.000000)">
                    <path d="M93.5217259,109.745596 C93.5204742,109.657777 93.5198463,109.569808 93.5198463,109.481692 C93.5198463,99.474053 101.619792,91.3612589 111.61158,91.3612589 C121.603369,91.3612589 129.703314,99.474053 129.703314,109.481692 C129.703314,109.569808 129.702686,109.657777 129.701435,109.745596 L93.5217259,109.745596 Z" id="Combined-Shape-Copy-3" fill="url(#linearGradient-2)" opacity="0.800000012" transform="translate(111.611580, 100.553427) rotate(-270.000000) translate(-111.611580, -100.553427) "></path>
                    <path d="M134.997804,100.817331 C134.856898,110.703302 126.811761,118.67386 116.907949,118.67386 C116.819973,118.67386 116.732142,118.673231 116.644463,118.671978 L116.644463,100.817331 L54.5063584,100.817331 C44.0239243,100.817331 35.5262325,92.3231734 35.5262325,81.8399513 C35.5262325,71.3590337 44.0147849,62.8625713 54.4943986,62.8625713 L196.578486,62.8625713 L196.578486,63.7981334 C189.647712,83.9970697 171.273449,98.8664915 149.210176,100.639621 L149.210176,100.817331 L134.997804,100.817331 Z" id="Combined-Shape" fill="url(#linearGradient-2)"></path>
                    <path d="M0.00187964033,80.6538651 C0.000627959351,80.5660468 0,80.4780774 0,80.3899611 C0,70.3823223 8.09994524,62.2695282 18.0917341,62.2695282 C28.0835229,62.2695282 36.1834681,70.3823223 36.1834681,80.3899611 C36.1834681,80.4780774 36.1828402,80.5660468 36.1815885,80.6538651 L0.00187964033,80.6538651 Z" id="Combined-Shape" fill="url(#linearGradient-2)"></path>
                    <path d="M8.85087186,107.966466 C8.84962018,107.878648 8.84899222,107.790679 8.84899222,107.702562 C8.84899222,97.6949236 16.9489375,89.5821295 26.9407263,89.5821295 C36.9325151,89.5821295 45.0324603,97.6949236 45.0324603,107.702562 C45.0324603,107.790679 45.0318324,107.878648 45.0305807,107.966466 L8.85087186,107.966466 Z" id="Combined-Shape-Copy" fill="url(#linearGradient-2)" transform="translate(26.940726, 98.774298) rotate(-90.000000) translate(-26.940726, -98.774298) "></path>
                    <ellipse id="Combined-Shape-Copy-2" fill="#FFFFFF" cx="161.576266" cy="78.8065359" rx="11.1818818" ry="11.1996196"></ellipse>
                    <ellipse id="Combined-Shape-Copy-2" fill="#000000" cx="161.745015" cy="78.9755531" rx="4.8374887" ry="4.84516238"></ellipse>
                    <ellipse id="Oval-17-Copy-3" fill="#B7E3E4" cx="182.367993" cy="23.721725" rx="9.47366199" ry="9.48869001"></ellipse>
                    <ellipse id="Oval-17-Copy-4" fill="#B7E3E4" cx="172.894331" cy="47.44345" rx="4.736831" ry="4.744345"></ellipse>
                    <ellipse id="Oval-17-Copy-5" fill="#B7E3E4" cx="179.999578" cy="2.3721725" rx="2.3684155" ry="2.3721725"></ellipse>
                </g>
            </g>
            <g id="Group-3-Copy" transform="translate(595.000000, 58.000000)">
                <path d="M1.62207018,151.933906 C0.540684652,150.852521 0,149.590923 0,148.149076 L0,7.78593685 C0,6.19990474 0.504639008,4.86621594 1.51393216,3.78483041 C2.52322532,2.70344489 3.82086848,2.16276023 5.40690059,2.16276023 L29.8460912,2.16276023 C33.1623402,2.16276023 35.6134439,3.53249469 37.199476,6.27200468 L88.2406176,86.9429614 L88.2406176,7.78593685 C88.2406176,6.19990474 88.7452566,4.86621594 89.7545497,3.78483041 C90.7638429,2.70344489 92.0614861,2.16276023 93.6475182,2.16276023 L121.114573,2.16276023 C122.700605,2.16276023 123.998248,2.70344489 125.007542,3.78483041 C126.016835,4.86621594 126.521474,6.19990474 126.521474,7.78593685 L126.521474,147.9328 C126.521474,149.518832 126.016835,150.852521 125.007542,151.933906 C123.998248,153.015292 122.700605,153.555977 121.114573,153.555977 L96.6753825,153.555977 C93.3591336,153.555977 90.9080298,152.186242 89.3219977,149.446732 L38.4971322,72.0199158 L38.4971322,148.149076 C38.4971322,149.735108 37.9564475,151.032751 36.875062,152.042045 C35.7936765,153.051338 34.4599877,153.555977 32.8739556,153.555977 L5.40690059,153.555977 C3.96505322,153.555977 2.7034557,153.015292 1.62207018,151.933906 Z M170.20923,140.795691 C158.386082,130.846944 152.11414,116.212413 151.393216,96.8916585 C151.249032,92.8544859 151.17694,86.6546352 151.17694,78.2919205 C151.17694,69.9292058 151.249032,63.6572638 151.393216,59.4759065 C151.969955,40.4435212 158.277943,25.7729443 170.317368,15.4637357 C182.356794,5.15452701 198.469197,0 218.65506,0 C238.696738,0 254.737049,5.15452701 266.776475,15.4637357 C278.8159,25.7729443 285.123888,40.4435212 285.700627,59.4759065 C285.988996,67.8386212 286.133179,74.1105631 286.133179,78.2919205 C286.133179,82.6174626 285.988996,88.8173133 285.700627,96.8916585 C284.979703,116.212413 278.743807,130.846944 266.992751,140.795691 C255.241695,150.744438 239.129292,155.718737 218.65506,155.718737 C198.180827,155.718737 182.032379,150.744438 170.20923,140.795691 Z M236.60597,116.464639 C241.075697,111.922819 243.454709,104.96601 243.743078,95.5940024 C244.031448,87.2312877 244.175631,81.2477108 244.175631,77.6430924 C244.175631,74.038474 244.031448,68.1990798 243.743078,60.1247345 C243.454709,50.7527267 241.075697,43.7959175 236.60597,39.2540983 C232.136243,34.7122791 226.152666,32.4414035 218.65506,32.4414035 C211.013269,32.4414035 204.957601,34.7122791 200.487874,39.2540983 C196.018147,43.7959175 193.639134,50.7527267 193.350765,60.1247345 C193.20658,64.1619072 193.134489,70.0013014 193.134489,77.6430924 C193.134489,85.4290682 193.20658,91.412645 193.350765,95.5940024 C193.639134,104.96601 196.018147,111.922819 200.487874,116.464639 C204.957601,121.006458 211.013269,123.277333 218.65506,123.277333 C226.152666,123.277333 232.136243,121.006458 236.60597,116.464639 Z" id="NO" fill="url(#linearGradient-1)"></path>
                <g id="Group-2" transform="translate(79.984344, 22.285714)">
                    <path d="M49.782379,103.993583 C49.7813568,103.921976 49.780844,103.850246 49.780844,103.778396 C49.780844,95.6181672 56.3960165,89.0029946 64.5562455,89.0029946 C72.7164744,89.0029946 79.3316469,95.6181672 79.3316469,103.778396 C79.3316469,103.850246 79.3311341,103.921976 79.3301119,103.993583 L49.782379,103.993583 Z" id="Combined-Shape-Copy-3" fill="url(#linearGradient-3)" opacity="0.800000012" transform="translate(64.556245, 96.498289) rotate(-270.000000) translate(-64.556245, -96.498289) "></path>
                    <path d="M83.3761706,93.6159526 C83.5605104,94.5481895 83.657157,95.5119527 83.657157,96.498289 C83.657157,104.658518 77.0419844,111.27369 68.8817555,111.27369 C68.8099055,111.27369 68.7381752,111.273178 68.6665682,111.272155 L68.6665682,96.710516 C68.5056138,96.7124877 68.3444228,96.7134763 68.1830008,96.7134763 C46.8176496,96.7134763 29.4976103,79.393437 29.4976103,58.0280858 C29.4976103,36.6627346 46.8176496,19.3426953 68.1830008,19.3426953 C89.548352,19.3426953 106.868391,36.6627346 106.868391,58.0280858 C106.868391,74.0000867 97.1890133,87.7113477 83.3761757,93.6159505 Z" id="Combined-Shape" fill="url(#linearGradient-3)"></path>
                    <circle id="Oval-17-Copy-3" fill="#B7E3E4" cx="118.474009" cy="34.8168515" r="7.73707811"></circle>
                    <circle id="Oval-17-Copy-4" fill="#B7E3E4" cx="110.73693" cy="15.4741562" r="3.86853905"></circle>
                    <circle id="Oval-17-Copy-5" fill="#B7E3E4" cx="116.539739" cy="1.93426953" r="1.93426953"></circle>
                    <path d="M0.00153509002,58.0280858 C0.000512850316,57.9564788 0,57.8847485 0,57.8128985 C0,49.6526695 6.61517258,43.037497 14.7754015,43.037497 C22.9356304,43.037497 29.550803,49.6526695 29.550803,57.8128985 C29.550803,57.8847485 29.5502901,57.9564788 29.5492679,58.0280858 L0.00153509002,58.0280858 Z" id="Combined-Shape" fill="url(#linearGradient-3)"></path>
                    <path d="M7.22844946,80.2987817 C7.22742722,80.2271747 7.22691437,80.1554444 7.22691437,80.0835944 C7.22691437,71.9233655 13.8420869,65.3081929 22.0023159,65.3081929 C30.1625448,65.3081929 36.7777174,71.9233655 36.7777174,80.0835944 C36.7777174,80.1554444 36.7772045,80.2271747 36.7761823,80.2987817 L7.22844946,80.2987817 Z" id="Combined-Shape-Copy" fill="url(#linearGradient-3)" transform="translate(22.002316, 72.803487) rotate(-90.000000) translate(-22.002316, -72.803487) "></path>
                    <g id="Group" transform="translate(80.755753, 58.028086)">
                        <mask id="mask-5" fill="white">
                            <use xlink:href="#path-4"></use>
                        </mask>
                        <g id="Mask"></g>
                        <g mask="url(#mask-5)" id="Combined-Shape-Copy-2">
                            <g transform="translate(3.384972, -9.187780)">
                                <circle fill="#FFFFFF" cx="9.61573749" cy="9.13217011" r="9.13217011"></circle>
                                <circle fill="#000000" cx="5.64323138" cy="9.02820305" r="5.64323138"></circle>
                            </g>
                        </g>
                    </g>
                </g>
            </g>
            <g id="koda" transform="translate(401.000000, 262.000000)">
                <path d="M68.0010871,178.887965 C66.6778686,178.969586 65.3437707,179.011 64,179.011 C62.6562293,179.011 61.3221314,178.969586 59.9989129,178.887965 C59.8738734,192.280728 48.9783081,203.099001 35.5559998,203.099001 C35.4371331,203.099001 35.3184646,203.098152 35.2,203.096461 L35.2,172.180335 C33.6834279,171.414832 32.2014669,170.590758 30.7570895,169.711085 C28.5830312,180.984241 18.6638799,189.499001 6.75599976,189.499001 C6.6371331,189.499001 6.5184646,189.498152 6.4,189.496461 L6.4,142.941402 C2.29978812,134.501322 2.84217094e-14,125.024733 2.84217094e-14,115.011 C2.84217094e-14,79.6647761 28.653776,51.0110001 64,51.0110001 C99.346224,51.0110001 128,79.6647761 128,115.011 C128,125.024733 125.700212,134.501322 121.6,142.941402 L121.6,189.496461 C121.481535,189.498152 121.362867,189.499001 121.244,189.499001 C109.33612,189.499001 99.4169688,180.984241 97.2429105,169.711085 C95.7985331,170.590758 94.3165721,171.414832 92.8,172.180335 L92.8,203.096461 C92.6815354,203.098152 92.5628669,203.099001 92.4440002,203.099001 C79.0216919,203.099001 68.1261266,192.280728 68.0010871,178.887965 Z" id="Combined-Shape" fill="url(#linearGradient-6)"></path>
                <circle id="Oval-17-Copy-4" fill="#B7E3E4" cx="128" cy="56" r="8"></circle>
                <circle id="Oval-17-Copy-6" fill="#B7E3E4" cx="120" cy="8" r="8"></circle>
                <circle id="Oval-17-Copy-5" fill="#B7E3E4" cx="140" cy="28" r="4"></circle>
                <g id="Group-3" transform="translate(27.000000, 112.000000) scale(-1, 1) translate(-27.000000, -112.000000) translate(8.000000, 93.000000)">
                    <circle id="Combined-Shape-Copy-2" fill="#FFFFFF" cx="18.8850002" cy="18.8850002" r="18.8850002"></circle>
                    <circle id="Combined-Shape-Copy-2" fill="#000000" cx="15.6700001" cy="14.6700001" r="11.6700001"></circle>
                </g>
                <g id="Group-4" transform="translate(101.000000, 112.000000) scale(-1, 1) translate(-101.000000, -112.000000) translate(82.000000, 93.000000)">
                    <circle id="Combined-Shape-Copy-6" fill="#FFFFFF" cx="18.8850002" cy="18.8850002" r="18.8850002"></circle>
                    <circle id="Combined-Shape-Copy-7" fill="#000000" cx="15.6700001" cy="14.6700001" r="11.6700001"></circle>
                </g>
            </g>
        </g>
    </g>
</svg>