<?xml version="1.0" encoding="UTF-8"?>
<svg width="1181px" height="400px" viewBox="0 0 1181 400" version="1.1" xmlns="http://www.w3.org/2000/svg" xmlns:xlink="http://www.w3.org/1999/xlink">
    <!-- Generator: Sketch 45.2 (43514) - http://www.bohemiancoding.com/sketch -->
    <title>Artboard 2 Copy 9</title>
    <desc>Created with Sketch.</desc>
    <defs>
        <linearGradient x1="50%" y1="0%" x2="50%" y2="100%" id="linearGradient-1">
            <stop stop-color="#E57066" offset="0%"></stop>
            <stop stop-color="#FC3C2D" offset="100%"></stop>
        </linearGradient>
        <rect id="path-2" x="0" y="0" width="79.1996577" height="41.183822"></rect>
        <linearGradient x1="50%" y1="0%" x2="50%" y2="100%" id="linearGradient-4">
            <stop stop-color="#B18AE0" offset="0%"></stop>
            <stop stop-color="#9357A9" offset="100%"></stop>
        </linearGradient>
    </defs>
    <g id="Page-1" stroke="none" stroke-width="1" fill="none" fill-rule="evenodd">
        <g id="Artboard-2-Copy-9">
            <g id="Group-2" transform="translate(727.000000, 16.000000)">
                <path d="M163.069203,340.645648 C163.065855,340.411089 163.064175,340.176127 163.064175,339.940772 C163.064175,313.210791 184.733105,291.54186 211.463086,291.54186 C238.193067,291.54186 259.861997,313.210791 259.861997,339.940772 C259.861997,340.176127 259.860317,340.411089 259.856969,340.645648 L163.069203,340.645648 Z" id="Combined-Shape-Copy-3" fill="url(#linearGradient-1)" opacity="0.800000012" transform="translate(211.463086, 316.093754) rotate(-270.000000) translate(-211.463086, -316.093754) "></path>
                <path d="M273.110422,306.652248 C318.356319,287.310889 350.062487,242.39772 350.062487,190.079178 C350.062487,120.093957 293.328256,63.3597262 223.343035,63.3597262 C153.357814,63.3597262 96.6235824,120.093957 96.6235824,190.079178 C96.6235824,260.0644 153.357814,316.798631 223.343035,316.798631 C223.871795,316.798631 224.399799,316.795392 224.927028,316.788934 L224.927028,364.487637 C225.161587,364.490986 225.396549,364.492666 225.631904,364.492666 C252.361885,364.492666 274.030816,342.823735 274.030816,316.093754 C274.030816,312.862871 273.714236,309.705928 273.110405,306.652255 Z" id="Combined-Shape" fill="url(#linearGradient-1)"></path>
                <circle id="Oval-17-Copy-3" fill="#B7E3E4" cx="388.078323" cy="114.047507" r="25.3438905"></circle>
                <circle id="Oval-17-Copy-4" fill="#B7E3E4" cx="362.734432" cy="50.6877809" r="12.6719452"></circle>
                <circle id="Oval-17-Copy-5" fill="#B7E3E4" cx="381.74235" cy="6.33597262" r="6.33597262"></circle>
                <path d="M0.00502840386,190.079178 C0.00167991354,189.84462 0,189.609657 0,189.374302 C0,162.644321 21.6689307,140.975391 48.3989113,140.975391 C75.1288919,140.975391 96.7978226,162.644321 96.7978226,189.374302 C96.7978226,189.609657 96.7961427,189.84462 96.7927942,190.079178 L0.00502840386,190.079178 Z" id="Combined-Shape" fill="url(#linearGradient-1)"></path>
                <path d="M23.6778056,263.029984 C23.6744571,262.795425 23.6727772,262.560462 23.6727772,262.325107 C23.6727772,235.595127 45.3417079,213.926196 72.0716885,213.926196 C98.8016691,213.926196 120.4706,235.595127 120.4706,262.325107 C120.4706,262.560462 120.46892,262.795425 120.465571,263.029984 L23.6778056,263.029984 Z" id="Combined-Shape-Copy" fill="url(#linearGradient-1)" transform="translate(72.071689, 238.478090) rotate(-90.000000) translate(-72.071689, -238.478090) "></path>
                <g id="Group" transform="translate(264.526857, 190.079178)">
                    <mask id="mask-3" fill="white">
                        <use xlink:href="#path-2"></use>
                    </mask>
                    <g id="Mask"></g>
                    <g mask="url(#mask-3)" id="Combined-Shape-Copy-2">
                        <g transform="translate(11.087952, -30.095870)">
                            <circle fill="#FFFFFF" cx="31.4977042" cy="29.9137111" r="29.9137111"></circle>
                            <circle fill="#000000" cx="18.4852002" cy="29.5731523" r="18.4852002"></circle>
                        </g>
                    </g>
                </g>
            </g>
            <g id="koda" transform="translate(40.000000, 97.000000)">
                <path d="M68.0010871,178.887965 C66.6778686,178.969586 65.3437707,179.011 64,179.011 C62.6562293,179.011 61.3221314,178.969586 59.9989129,178.887965 C59.8738734,192.280728 48.9783081,203.099001 35.5559998,203.099001 C35.4371331,203.099001 35.3184646,203.098152 35.2,203.096461 L35.2,172.180335 C33.6834279,171.414832 32.2014669,170.590758 30.7570895,169.711085 C28.5830312,180.984241 18.6638799,189.499001 6.75599976,189.499001 C6.6371331,189.499001 6.5184646,189.498152 6.4,189.496461 L6.4,142.941402 C2.29978812,134.501322 2.84217094e-14,125.024733 2.84217094e-14,115.011 C2.84217094e-14,79.6647761 28.653776,51.0110001 64,51.0110001 C99.346224,51.0110001 128,79.6647761 128,115.011 C128,125.024733 125.700212,134.501322 121.6,142.941402 L121.6,189.496461 C121.481535,189.498152 121.362867,189.499001 121.244,189.499001 C109.33612,189.499001 99.4169688,180.984241 97.2429105,169.711085 L97.2429105,169.711085 C95.7985331,170.590758 94.3165721,171.414832 92.8,172.180335 L92.8,203.096461 C92.6815354,203.098152 92.5628669,203.099001 92.4440002,203.099001 C79.0216919,203.099001 68.1261266,192.280728 68.0010871,178.887965 Z" id="Combined-Shape" fill="url(#linearGradient-4)"></path>
                <circle id="Oval-17-Copy-4" fill="#B7E3E4" cx="128" cy="56" r="8"></circle>
                <circle id="Oval-17-Copy-6" fill="#B7E3E4" cx="120" cy="8" r="8"></circle>
                <circle id="Oval-17-Copy-5" fill="#B7E3E4" cx="140" cy="28" r="4"></circle>
                <circle id="Combined-Shape-Copy-2" fill="#FFFFFF" cx="26.8850002" cy="111.885" r="18.8850002"></circle>
                <circle id="Combined-Shape-Copy-6" fill="#FFFFFF" cx="100.885" cy="111.885" r="18.8850002"></circle>
                <circle id="Combined-Shape-Copy-2" fill="#000000" cx="31.6700001" cy="111.67" r="11.6700001"></circle>
                <circle id="Combined-Shape-Copy-7" fill="#000000" cx="105.67" cy="111.67" r="11.6700001"></circle>
            </g>
        </g>
    </g>
</svg>