<?xml version="1.0" encoding="UTF-8"?>
<svg width="1181px" height="400px" viewBox="0 0 1181 400" version="1.1" xmlns="http://www.w3.org/2000/svg" xmlns:xlink="http://www.w3.org/1999/xlink">
    <!-- Generator: Sketch 45.2 (43514) - http://www.bohemiancoding.com/sketch -->
    <title>Artboard 2 Copy 11</title>
    <desc>Created with Sketch.</desc>
    <defs>
        <linearGradient x1="50%" y1="0%" x2="50%" y2="100%" id="linearGradient-1">
            <stop stop-color="#B18AE0" offset="0%"></stop>
            <stop stop-color="#9357A9" offset="100%"></stop>
        </linearGradient>
        <linearGradient x1="50%" y1="0%" x2="50%" y2="100%" id="linearGradient-2">
            <stop stop-color="#B7E3E4" offset="0%"></stop>
            <stop stop-color="#A6CFE2" offset="100%"></stop>
        </linearGradient>
    </defs>
    <g id="Page-1" stroke="none" stroke-width="1" fill="none" fill-rule="evenodd">
        <g id="Artboard-2-Copy-11">
            <g id="koda" transform="translate(1005.000000, 97.000000)">
                <path d="M68.0010871,178.887965 C66.6778686,178.969586 65.3437707,179.011 64,179.011 C62.6562293,179.011 61.3221314,178.969586 59.9989129,178.887965 C59.8738734,192.280728 48.9783081,203.099001 35.5559998,203.099001 C35.4371331,203.099001 35.3184646,203.098152 35.2,203.096461 L35.2,172.180335 C33.6834279,171.414832 32.2014669,170.590758 30.7570895,169.711085 C28.5830312,180.984241 18.6638799,189.499001 6.75599976,189.499001 C6.6371331,189.499001 6.5184646,189.498152 6.4,189.496461 L6.4,142.941402 C2.29978812,134.501322 2.84217094e-14,125.024733 2.84217094e-14,115.011 C2.84217094e-14,79.6647761 28.653776,51.0110001 64,51.0110001 C99.346224,51.0110001 128,79.6647761 128,115.011 C128,125.024733 125.700212,134.501322 121.6,142.941402 L121.6,189.496461 C121.481535,189.498152 121.362867,189.499001 121.244,189.499001 C109.33612,189.499001 99.4169688,180.984241 97.2429105,169.711085 L97.2429105,169.711085 C95.7985331,170.590758 94.3165721,171.414832 92.8,172.180335 L92.8,203.096461 C92.6815354,203.098152 92.5628669,203.099001 92.4440002,203.099001 C79.0216919,203.099001 68.1261266,192.280728 68.0010871,178.887965 Z" id="Combined-Shape" fill="url(#linearGradient-1)"></path>
                <circle id="Oval-17-Copy-4" fill="#B7E3E4" cx="128" cy="56" r="8"></circle>
                <circle id="Oval-17-Copy-6" fill="#B7E3E4" cx="120" cy="8" r="8"></circle>
                <circle id="Oval-17-Copy-5" fill="#B7E3E4" cx="140" cy="28" r="4"></circle>
                <g id="Group-3" transform="translate(27.000000, 112.000000) scale(-1, 1) translate(-27.000000, -112.000000) translate(8.000000, 93.000000)">
                    <circle id="Combined-Shape-Copy-2" fill="#FFFFFF" cx="18.8850002" cy="18.8850002" r="18.8850002"></circle>
                    <circle id="Combined-Shape-Copy-2" fill="#000000" cx="23.6700001" cy="18.6700001" r="11.6700001"></circle>
                </g>
                <g id="Group-4" transform="translate(101.000000, 112.000000) scale(-1, 1) translate(-101.000000, -112.000000) translate(82.000000, 93.000000)">
                    <circle id="Combined-Shape-Copy-6" fill="#FFFFFF" cx="18.8850002" cy="18.8850002" r="18.8850002"></circle>
                    <circle id="Combined-Shape-Copy-7" fill="#000000" cx="23.6700001" cy="18.6700001" r="11.6700001"></circle>
                </g>
            </g>
            <g id="Group" transform="translate(20.000000, 47.000000)">
                <path d="M214.103037,250.847076 C214.100172,250.646349 214.098734,250.445276 214.098734,250.243867 C214.098734,227.369264 232.642264,208.825735 255.516867,208.825735 C278.391469,208.825735 296.934999,227.369264 296.934999,250.243867 C296.934999,250.445276 296.933561,250.646349 296.930696,250.847076 L214.103037,250.847076 Z" id="Combined-Shape-Copy-3" fill="url(#linearGradient-2)" opacity="0.800000012" transform="translate(255.516867, 229.836405) rotate(-270.000000) translate(-255.516867, -229.836405) "></path>
                <path d="M309.055886,230.439614 L341.59284,230.439614 L341.59284,230.033419 C392.103176,225.980552 434.168111,191.993302 450.035012,145.824305 L450.035012,143.685877 L124.7108,143.685877 C100.74864,143.685877 81.3316286,163.106363 81.3316286,187.062746 C81.3316286,211.024396 100.752954,230.439614 124.710374,230.439614 L267.038847,230.439614 L267.038847,271.250234 C267.239575,271.2531 267.440648,271.254538 267.642057,271.254538 C290.315251,271.254538 308.733305,253.036119 309.055886,230.439614 Z" id="Combined-Shape" fill="url(#linearGradient-2)"></path>
                <path d="M0.00430313598,184.351692 C0.00143761252,184.150964 0,183.949891 0,183.748482 C0,160.87388 18.5435295,142.33035 41.4181323,142.33035 C64.2927351,142.33035 82.8362646,160.87388 82.8362646,183.748482 C82.8362646,183.949891 82.834827,184.150964 82.8319615,184.351692 L0.00430313598,184.351692 Z" id="Combined-Shape" fill="url(#linearGradient-2)"></path>
                <path d="M20.2626559,246.780495 C20.2597904,246.579767 20.2583528,246.378694 20.2583528,246.177285 C20.2583528,223.302683 38.8018822,204.759153 61.6764851,204.759153 C84.5510879,204.759153 103.094617,223.302683 103.094617,246.177285 C103.094617,246.378694 103.09318,246.579767 103.090314,246.780495 L20.2626559,246.780495 Z" id="Combined-Shape-Copy" fill="url(#linearGradient-2)" transform="translate(61.676485, 225.769824) rotate(-90.000000) translate(-61.676485, -225.769824) "></path>
                <circle id="Combined-Shape-Copy-2" fill="#FFFFFF" cx="369.903025" cy="180.129225" r="25.5991304"></circle>
                <circle id="Combined-Shape-Copy-2" fill="#000000" cx="370.28935" cy="180.51555" r="11.0746569"></circle>
                <circle id="Oval-17-Copy-3" fill="#B7E3E4" cx="417.50236" cy="54.2210858" r="21.6884343"></circle>
                <circle id="Oval-17-Copy-4" fill="#B7E3E4" cx="395.813926" cy="108.442172" r="10.8442172"></circle>
                <circle id="Oval-17-Copy-5" fill="#B7E3E4" cx="412.080252" cy="5.42210858" r="5.42210858"></circle>
            </g>
        </g>
    </g>
</svg>