<?xml version="1.0" encoding="UTF-8"?>
<svg width="945px" height="551px" viewBox="0 0 945 551" version="1.1" xmlns="http://www.w3.org/2000/svg" xmlns:xlink="http://www.w3.org/1999/xlink">
    <!-- Generator: Sketch 45.2 (43514) - http://www.bohemiancoding.com/sketch -->
    <title>Artboard 2 Copy 10</title>
    <desc>Created with Sketch.</desc>
    <defs>
        <linearGradient x1="50%" y1="0%" x2="50%" y2="100%" id="linearGradient-1">
            <stop stop-color="#FFFFFF" offset="0%"></stop>
            <stop stop-color="#E9E9E9" offset="100%"></stop>
        </linearGradient>
        <linearGradient x1="50%" y1="0%" x2="50%" y2="100%" id="linearGradient-2">
            <stop stop-color="#E57066" offset="0%"></stop>
            <stop stop-color="#FC3C2D" offset="100%"></stop>
        </linearGradient>
        <rect id="path-3" x="0" y="0" width="79.1996577" height="41.183822"></rect>
    </defs>
    <g id="Page-1" stroke="none" stroke-width="1" fill="none" fill-rule="evenodd">
        <g id="Artboard-2-Copy-10">
            <path d="M9.31331962,516.680937 C5.77108883,513.138707 4,509.006166 4,504.283192 L4,44.5039342 C4,39.3086623 5.65301624,34.9399766 8.95909831,31.3977458 C12.2651804,27.855515 16.5157936,26.0844262 21.7110654,26.0844262 L101.765081,26.0844262 C112.627922,26.0844262 120.656858,30.5711845 125.85213,39.5448358 L293.044587,303.793931 L293.044587,44.5039342 C293.044587,39.3086623 294.697603,34.9399766 298.003685,31.3977458 C301.309767,27.855515 305.560381,26.0844262 310.755652,26.0844262 L400.727865,26.0844262 C405.923136,26.0844262 410.17375,27.855515 413.479832,31.3977458 C416.785914,34.9399766 418.43893,39.3086623 418.43893,44.5039342 L418.43893,503.574749 C418.43893,508.770021 416.785914,513.138707 413.479832,516.680937 C410.17375,520.223168 405.923136,521.994257 400.727865,521.994257 L320.673849,521.994257 C309.811008,521.994257 301.782072,517.507499 296.5868,508.533847 L130.102786,254.911391 L130.102786,504.283192 C130.102786,509.478463 128.331697,513.729077 124.789466,517.035159 C121.247235,520.341241 116.878549,521.994257 111.683278,521.994257 L21.7110654,521.994257 C16.988091,521.994257 12.8555504,520.223168 9.31331962,516.680937 Z M561.544338,480.196143 C522.815948,447.607619 502.271318,399.670148 499.909831,336.382292 C499.437533,323.157963 499.201388,302.849478 499.201388,275.456227 C499.201388,248.062975 499.437533,227.518345 499.909831,213.821719 C501.799021,151.478457 522.461724,103.422914 561.89856,69.653647 C601.335396,35.8843802 654.113843,19 720.235484,19 C785.884828,19 838.42713,35.8843802 877.863966,69.653647 C917.300802,103.422914 937.963505,151.478457 939.852695,213.821719 C940.79729,241.214971 941.26958,261.759601 941.26958,275.456227 C941.26958,289.62515 940.79729,309.933635 939.852695,336.382292 C937.491208,399.670148 917.06465,447.607619 878.572409,480.196143 C840.080167,512.784666 787.30172,529.078683 720.235484,529.078683 C653.169248,529.078683 600.272728,512.784666 561.544338,480.196143 Z M779.036221,400.496348 C793.677442,385.618979 801.470233,362.830969 802.414828,332.131636 C803.359422,304.738385 803.831713,285.138335 803.831713,273.330899 C803.831713,261.523463 803.359422,242.395704 802.414828,215.947047 C801.470233,185.247714 793.677442,162.459704 779.036221,147.582335 C764.395001,132.704965 744.794951,125.266392 720.235484,125.266392 C695.20372,125.266392 675.367525,132.704965 660.726304,147.582335 C646.085084,162.459704 638.292293,185.247714 637.347698,215.947047 C636.875401,229.171375 636.639256,248.299135 636.639256,273.330899 C636.639256,298.834961 636.875401,318.43501 637.347698,332.131636 C638.292293,362.830969 646.085084,385.618979 660.726304,400.496348 C675.367525,415.373718 695.20372,422.812291 720.235484,422.812291 C744.794951,422.812291 764.395001,415.373718 779.036221,400.496348 Z" id="NO" fill="url(#linearGradient-1)"></path>
            <g id="Group-2" transform="translate(266.000000, 92.000000)">
                <path d="M163.069203,340.645648 C163.065855,340.411089 163.064175,340.176127 163.064175,339.940772 C163.064175,313.210791 184.733105,291.54186 211.463086,291.54186 C238.193067,291.54186 259.861997,313.210791 259.861997,339.940772 C259.861997,340.176127 259.860317,340.411089 259.856969,340.645648 L163.069203,340.645648 Z" id="Combined-Shape-Copy-3" fill="url(#linearGradient-2)" opacity="0.800000012" transform="translate(211.463086, 316.093754) rotate(-270.000000) translate(-211.463086, -316.093754) "></path>
                <path d="M273.110422,306.652248 C318.356319,287.310889 350.062487,242.39772 350.062487,190.079178 C350.062487,120.093957 293.328256,63.3597262 223.343035,63.3597262 C153.357814,63.3597262 96.6235824,120.093957 96.6235824,190.079178 C96.6235824,260.0644 153.357814,316.798631 223.343035,316.798631 C223.871795,316.798631 224.399799,316.795392 224.927028,316.788934 L224.927028,364.487637 C225.161587,364.490986 225.396549,364.492666 225.631904,364.492666 C252.361885,364.492666 274.030816,342.823735 274.030816,316.093754 C274.030816,312.862871 273.714236,309.705928 273.110405,306.652255 Z" id="Combined-Shape" fill="url(#linearGradient-2)"></path>
                <circle id="Oval-17-Copy-3" fill="#B7E3E4" cx="388.078323" cy="114.047507" r="25.3438905"></circle>
                <circle id="Oval-17-Copy-4" fill="#B7E3E4" cx="362.734432" cy="50.6877809" r="12.6719452"></circle>
                <circle id="Oval-17-Copy-5" fill="#B7E3E4" cx="381.74235" cy="6.33597262" r="6.33597262"></circle>
                <path d="M0.00502840386,190.079178 C0.00167991354,189.84462 0,189.609657 0,189.374302 C0,162.644321 21.6689307,140.975391 48.3989113,140.975391 C75.1288919,140.975391 96.7978226,162.644321 96.7978226,189.374302 C96.7978226,189.609657 96.7961427,189.84462 96.7927942,190.079178 L0.00502840386,190.079178 Z" id="Combined-Shape" fill="url(#linearGradient-2)"></path>
                <path d="M23.6778056,263.029984 C23.6744571,262.795425 23.6727772,262.560462 23.6727772,262.325107 C23.6727772,235.595127 45.3417079,213.926196 72.0716885,213.926196 C98.8016691,213.926196 120.4706,235.595127 120.4706,262.325107 C120.4706,262.560462 120.46892,262.795425 120.465571,263.029984 L23.6778056,263.029984 Z" id="Combined-Shape-Copy" fill="url(#linearGradient-2)" transform="translate(72.071689, 238.478090) rotate(-90.000000) translate(-72.071689, -238.478090) "></path>
                <g id="Group" transform="translate(264.526857, 190.079178)">
                    <mask id="mask-4" fill="white">
                        <use xlink:href="#path-3"></use>
                    </mask>
                    <g id="Mask"></g>
                    <g mask="url(#mask-4)" id="Combined-Shape-Copy-2">
                        <g transform="translate(11.087952, -30.095870)">
                            <circle fill="#FFFFFF" cx="31.4977042" cy="29.9137111" r="29.9137111"></circle>
                            <circle fill="#000000" cx="18.4852002" cy="29.5731523" r="18.4852002"></circle>
                        </g>
                    </g>
                </g>
            </g>
        </g>
    </g>
</svg>