<?xml version="1.0" encoding="UTF-8"?>
<svg width="945px" height="551px" viewBox="0 0 945 551" version="1.1" xmlns="http://www.w3.org/2000/svg" xmlns:xlink="http://www.w3.org/1999/xlink">
    <!-- Generator: Sketch 45.2 (43514) - http://www.bohemiancoding.com/sketch -->
    <title>Artboard 2 Copy 12</title>
    <desc>Created with Sketch.</desc>
    <defs>
        <linearGradient x1="50%" y1="0%" x2="50%" y2="100%" id="linearGradient-1">
            <stop stop-color="#FFFFFF" offset="0%"></stop>
            <stop stop-color="#E9E9E9" offset="100%"></stop>
        </linearGradient>
        <linearGradient x1="50%" y1="0%" x2="50%" y2="100%" id="linearGradient-2">
            <stop stop-color="#B7E3E4" offset="0%"></stop>
            <stop stop-color="#A6CFE2" offset="100%"></stop>
        </linearGradient>
    </defs>
    <g id="Page-1" stroke="none" stroke-width="1" fill="none" fill-rule="evenodd">
        <g id="Artboard-2-Copy-12">
            <path d="M116.935724,440.154643 C114.514683,437.733601 113.30418,434.909095 113.30418,431.681039 L113.30418,328.545183 L1.45261769,120.336648 C0.484201055,118.72262 0,116.947216 0,115.010383 C0,112.427938 1.04910229,110.087633 3.14733833,107.989397 C5.24557438,105.891161 7.58587947,104.842059 10.1683238,104.842059 L74.0835022,104.842059 C78.6027799,104.842059 82.314988,105.971861 85.2202379,108.2315 C88.1254878,110.491139 90.2236923,112.912144 91.5149145,115.494589 L158.819534,237.030269 L226.124154,115.494589 C227.415376,112.912144 229.513581,110.491139 232.418831,108.2315 C235.32408,105.971861 239.036289,104.842059 243.555566,104.842059 L307.470745,104.842059 C310.053189,104.842059 312.393494,105.891161 314.49173,107.989397 C316.589966,110.087633 317.639068,112.427938 317.639068,115.010383 C317.639068,116.947216 317.154867,118.72262 316.186451,120.336648 L204.334889,328.545183 L204.334889,431.681039 C204.334889,435.2319 203.124386,438.137107 200.703344,440.396746 C198.282303,442.656384 195.296396,443.786187 191.745535,443.786187 L125.409327,443.786187 C122.181272,443.786187 119.356766,442.575684 116.935724,440.154643 Z M360.975496,440.154643 C358.554455,437.733601 357.343952,434.909095 357.343952,431.681039 L357.343952,117.431412 C357.343952,113.880551 358.473754,110.894645 360.733393,108.473603 C362.993032,106.052562 365.898238,104.842059 369.449099,104.842059 L597.994283,104.842059 C601.545144,104.842059 604.53105,106.052562 606.952092,108.473603 C609.373133,110.894645 610.583636,113.880551 610.583636,117.431412 L610.583636,165.367796 C610.583636,168.918657 609.373133,171.823863 606.952092,174.083502 C604.53105,176.343141 601.545144,177.472944 597.994283,177.472944 L444.985219,177.472944 L444.985219,238.967092 L587.341753,238.967092 C590.892614,238.967092 593.878521,240.177595 596.299562,242.598637 C598.720604,245.019678 599.931106,248.005585 599.931106,251.556446 L599.931106,295.619182 C599.931106,299.170043 598.720604,302.15595 596.299562,304.576991 C593.878521,306.998033 590.892614,308.208536 587.341753,308.208536 L444.985219,308.208536 L444.985219,371.155302 L601.86793,371.155302 C605.418791,371.155302 608.404697,372.365805 610.825739,374.786847 C613.246781,377.207888 614.457283,380.193795 614.457283,383.744656 L614.457283,431.681039 C614.457283,435.2319 613.246781,438.137107 610.825739,440.396746 C608.404697,442.656384 605.418791,443.786187 601.86793,443.786187 L369.449099,443.786187 C366.221044,443.786187 363.396538,442.575684 360.975496,440.154643 Z M716.624728,435.070481 C694.67395,426.031925 678.049714,414.088299 666.75152,399.239244 C655.453326,384.390189 649.481513,368.250154 648.835902,350.818655 C648.835902,347.913405 649.885004,345.492399 651.98324,343.555566 C654.081476,341.618733 656.583182,340.650331 659.488432,340.650331 L723.887816,340.650331 C727.761483,340.650331 730.908789,341.295932 733.329831,342.587154 C735.750873,343.878377 738.413978,346.137981 741.319228,349.366037 C745.5157,357.11337 752.052415,363.488684 760.929567,368.49217 C769.80672,373.495656 781.669645,375.997361 796.518701,375.997361 C813.9502,375.997361 827.346429,373.334255 836.70779,368.007964 C846.069151,362.681672 850.749761,355.337956 850.749761,345.976596 C850.749761,339.197679 848.328756,333.629367 843.486673,329.271492 C838.644589,324.913617 830.897372,321.040009 820.244789,317.650551 C809.592206,314.261092 794.259173,310.468184 774.245229,306.271712 C735.185758,298.524379 705.972295,286.742153 686.603962,270.924682 C667.235629,255.10721 657.551608,232.511161 657.551608,203.135856 C657.551608,183.121912 663.11992,165.287173 674.256712,149.631104 C685.393503,133.975035 701.210737,121.789309 721.708889,113.073559 C742.207042,104.357809 766.013593,100 793.129259,100 C821.536147,100 846.149701,104.922711 866.970659,114.76828 C887.791616,124.613849 903.770251,136.880276 914.907042,151.567928 C926.043834,166.25558 931.934946,180.700912 932.580558,194.904356 C932.580558,197.809606 931.612155,200.311311 929.675322,202.409547 C927.738489,204.507783 925.317484,205.556886 922.412234,205.556886 L854.623408,205.556886 C847.521686,205.556886 842.034074,202.651679 838.160408,196.841179 C836.223574,190.062263 831.220164,184.33255 823.150025,179.65187 C815.079886,174.97119 805.073064,172.630885 793.129259,172.630885 C779.571426,172.630885 769.080403,175.05189 761.655876,179.893973 C754.231348,184.736056 750.51914,191.837672 750.51914,201.199032 C750.51914,210.560393 755.361151,217.904109 765.045317,223.230401 C774.729484,228.556692 792.806323,233.963604 819.276378,239.451298 C849.620099,244.938993 873.749452,251.798508 891.665159,260.030049 C909.580867,268.26159 922.815696,278.914014 931.370043,291.987638 C939.92439,305.061263 944.201499,321.604799 944.201499,341.618743 C944.201499,363.56952 937.906885,382.614761 925.317469,398.755038 C912.728053,414.895316 895.296815,427.242443 873.023232,435.79679 C850.74965,444.351137 825.248394,448.628246 796.518701,448.628246 C765.206563,448.628246 738.575505,444.109036 716.624728,435.070481 Z" id="YES" fill="url(#linearGradient-1)"></path>
            <g id="Group" transform="translate(247.000000, 90.000000)">
                <path d="M214.103037,250.847076 C214.100172,250.646349 214.098734,250.445276 214.098734,250.243867 C214.098734,227.369264 232.642264,208.825735 255.516867,208.825735 C278.391469,208.825735 296.934999,227.369264 296.934999,250.243867 C296.934999,250.445276 296.933561,250.646349 296.930696,250.847076 L214.103037,250.847076 Z" id="Combined-Shape-Copy-3" fill="url(#linearGradient-2)" opacity="0.800000012" transform="translate(255.516867, 229.836405) rotate(-270.000000) translate(-255.516867, -229.836405) "></path>
                <path d="M309.055886,230.439614 L341.59284,230.439614 L341.59284,230.033419 C392.103176,225.980552 434.168111,191.993302 450.035012,145.824305 L450.035012,143.685877 L124.7108,143.685877 C100.74864,143.685877 81.3316286,163.106363 81.3316286,187.062746 C81.3316286,211.024396 100.752954,230.439614 124.710374,230.439614 L267.038847,230.439614 L267.038847,271.250234 C267.239575,271.2531 267.440648,271.254538 267.642057,271.254538 C290.315251,271.254538 308.733305,253.036119 309.055886,230.439614 Z" id="Combined-Shape" fill="url(#linearGradient-2)"></path>
                <path d="M0.00430313598,184.351692 C0.00143761252,184.150964 0,183.949891 0,183.748482 C0,160.87388 18.5435295,142.33035 41.4181323,142.33035 C64.2927351,142.33035 82.8362646,160.87388 82.8362646,183.748482 C82.8362646,183.949891 82.834827,184.150964 82.8319615,184.351692 L0.00430313598,184.351692 Z" id="Combined-Shape" fill="url(#linearGradient-2)"></path>
                <path d="M20.2626559,246.780495 C20.2597904,246.579767 20.2583528,246.378694 20.2583528,246.177285 C20.2583528,223.302683 38.8018822,204.759153 61.6764851,204.759153 C84.5510879,204.759153 103.094617,223.302683 103.094617,246.177285 C103.094617,246.378694 103.09318,246.579767 103.090314,246.780495 L20.2626559,246.780495 Z" id="Combined-Shape-Copy" fill="url(#linearGradient-2)" transform="translate(61.676485, 225.769824) rotate(-90.000000) translate(-61.676485, -225.769824) "></path>
                <circle id="Combined-Shape-Copy-2" fill="#FFFFFF" cx="369.903025" cy="180.129225" r="25.5991304"></circle>
                <circle id="Combined-Shape-Copy-2" fill="#000000" cx="370.28935" cy="180.51555" r="11.0746569"></circle>
                <circle id="Oval-17-Copy-3" fill="#B7E3E4" cx="417.50236" cy="54.2210858" r="21.6884343"></circle>
                <circle id="Oval-17-Copy-4" fill="#B7E3E4" cx="395.813926" cy="108.442172" r="10.8442172"></circle>
                <circle id="Oval-17-Copy-5" fill="#B7E3E4" cx="412.080252" cy="5.42210858" r="5.42210858"></circle>
            </g>
        </g>
    </g>
</svg>